<?xml version="1.0" standalone="no"?>
<!DOCTYPE svg PUBLIC "-//W3C//DTD SVG 20010904//EN"
 "http://www.w3.org/TR/2001/REC-SVG-20010904/DTD/svg10.dtd">
<svg version="1.0" xmlns="http://www.w3.org/2000/svg"
 width="100.000000pt" height="100.000000pt" viewBox="0 0 100.000000 100.000000"
 preserveAspectRatio="xMidYMid meet">

<g transform="translate(0.000000,100.000000) scale(0.100000,-0.100000)"
fill="#000000" stroke="none">
<path d="M0 500 l0 -500 500 0 500 0 0 500 0 500 -500 0 -500 0 0 -500z m316
134 c-3 -9 -6 -33 -6 -55 0 -32 -3 -39 -20 -39 -17 0 -20 7 -20 48 0 54 4 62
33 62 13 0 17 -5 13 -16z m109 2 c36 -15 55 -42 55 -75 0 -14 -6 -21 -20 -21
-15 0 -20 7 -20 27 0 28 -25 63 -46 63 -7 0 -16 5 -19 10 -9 14 10 12 50 -4z
m135 -41 c0 -48 -2 -55 -20 -55 -17 0 -20 7 -20 48 0 51 5 62 27 62 9 0 13
-16 13 -55z m108 44 c51 -18 70 -99 23 -99 -14 0 -19 5 -15 15 11 27 -5 64
-34 79 -32 18 -18 21 26 5z m-358 -230 c0 -43 -3 -50 -17 -47 -14 2 -19 15
-21 51 -3 42 -1 47 17 47 18 0 21 -6 21 -51z m252 1 c3 -46 1 -50 -17 -48 -16
2 -21 12 -23 51 -3 41 -1 47 16 47 17 0 21 -8 24 -50z m178 41 c0 -52 -57 -92
-127 -90 l-38 2 43 6 c50 9 73 28 75 65 2 20 7 26 25 26 12 0 22 -4 22 -9z"/>
</g>
</svg>
