<?xml version="1.0" standalone="no"?>
<!DOCTYPE svg PUBLIC "-//W3C//DTD SVG 20010904//EN"
 "http://www.w3.org/TR/2001/REC-SVG-20010904/DTD/svg10.dtd">
<svg version="1.0" xmlns="http://www.w3.org/2000/svg"
 width="171.000000pt" height="44.000000pt" viewBox="0 0 171.000000 44.000000"
 preserveAspectRatio="xMidYMid meet">

<g transform="translate(0.000000,44.000000) scale(0.100000,-0.100000)"
fill="#000000" stroke="none">
<path d="M650 300 c0 -36 4 -50 14 -50 10 0 15 15 18 50 2 42 0 50 -14 50 -15
0 -18 -9 -18 -50z"/>
<path d="M774 329 c17 -14 26 -30 26 -50 0 -32 29 -43 31 -11 3 46 -24 82 -63
82 -19 0 -18 -2 6 -21z"/>
<path d="M880 300 c0 -38 4 -50 15 -50 11 0 15 12 15 50 0 38 -4 50 -15 50
-11 0 -15 -12 -15 -50z"/>
<path d="M1001 329 c15 -15 20 -30 17 -50 -4 -23 -1 -29 11 -27 42 8 13 98
-31 98 -17 0 -16 -2 3 -21z"/>
<path d="M593 223 c9 -2 23 -2 30 0 6 3 -1 5 -18 5 -16 0 -22 -2 -12 -5z"/>
<path d="M1093 223 c9 -2 25 -2 35 0 9 3 1 5 -18 5 -19 0 -27 -2 -17 -5z"/>
<path d="M650 140 c0 -38 4 -50 15 -50 11 0 15 12 15 50 0 38 -4 50 -15 50
-11 0 -15 -12 -15 -50z"/>
<path d="M880 140 l0 -50 53 2 c43 1 45 2 15 5 -38 4 -38 5 -38 49 0 32 -4 44
-15 44 -11 0 -15 -12 -15 -50z"/>
<path d="M1030 161 c0 -20 -8 -35 -22 -45 l-22 -16 22 0 c29 0 62 34 62 65 0
18 -5 25 -20 25 -15 0 -20 -7 -20 -29z"/>
</g>
</svg>
